<svg width="364" height="352" viewBox="0 0 364 352" fill="none" xmlns="http://www.w3.org/2000/svg">
<path fill-rule="evenodd" clip-rule="evenodd" d="M181.129 114.775C141.747 118.029 105.746 135.707 105.746 135.707L165.773 155.243L190.9 132.218C190.9 132.218 220.511 111.52 181.129 114.775Z" fill="#454F61"/>
<path fill-rule="evenodd" clip-rule="evenodd" d="M105.743 220.131C64.502 205.249 40.2913 216.272 33.8503 263.041C20.2706 258.351 10.4241 264.457 7.67578 268.274C37.1675 291.578 74.3335 309.788 74.3335 309.788C74.3335 309.788 83.4255 254.676 128.776 280.135C175.402 306.31 146.984 235.013 105.743 220.131Z" fill="#4F5B67"/>
<mask id="mask0_1109_1384" style="mask-type:alpha" maskUnits="userSpaceOnUse" x="7" y="213" width="146" height="97">
<path fill-rule="evenodd" clip-rule="evenodd" d="M105.743 220.131C64.502 205.249 40.2913 216.272 33.8503 263.041C20.2706 258.351 10.4241 264.457 7.67578 268.274C37.1675 291.578 74.3335 309.788 74.3335 309.788C74.3335 309.788 83.4255 254.676 128.776 280.135C175.402 306.31 146.984 235.013 105.743 220.131Z" fill="#4F5B67"/>
</mask>
<g mask="url(#mask0_1109_1384)">
<path fill-rule="evenodd" clip-rule="evenodd" d="M82.7094 301.066C67.412 284.883 37.7221 260.867 22.3336 258.854C6.9451 256.841 0.434975 265.54 -0.00196488 269.32C-0.438904 273.099 73.0217 318.423 76.7766 316.416C80.5314 314.409 98.0069 317.249 82.7094 301.066Z" fill="black"/>
<path fill-rule="evenodd" clip-rule="evenodd" d="M8.37264 263.041L82.3592 309.09L71.5404 316.067L5.92969 273.855L8.37264 263.041Z" fill="#90613E"/>
</g>
<path d="M216.725 313.276C288.619 313.276 346.9 269.153 346.9 214.723C346.9 160.294 288.619 116.17 216.725 116.17C144.832 116.17 86.5508 160.294 86.5508 214.723C86.5508 269.153 144.832 313.276 216.725 313.276Z" fill="#4097FD"/>
<mask id="mask1_1109_1384" style="mask-type:alpha" maskUnits="userSpaceOnUse" x="86" y="116" width="261" height="198">
<path d="M216.725 313.276C288.619 313.276 346.9 269.153 346.9 214.723C346.9 160.294 288.619 116.17 216.725 116.17C144.832 116.17 86.5508 160.294 86.5508 214.723C86.5508 269.153 144.832 313.276 216.725 313.276Z" fill="#4097FD"/>
</mask>
<g mask="url(#mask1_1109_1384)">
<path fill-rule="evenodd" clip-rule="evenodd" d="M342.014 184.198C340.763 225.472 313.013 257.202 273.611 267.576C244.567 275.223 214.98 272.111 214.98 272.111C214.98 272.111 234.594 285.356 254.068 287.112C273.542 288.869 304.323 291.299 304.323 291.299C304.323 291.299 347.133 259.176 350.041 249.435C352.949 239.694 353.594 204.77 352.484 194.315C351.374 183.861 343.265 142.925 342.014 184.198Z" fill="#3870EE"/>
<path fill-rule="evenodd" clip-rule="evenodd" d="M292.805 127.683C274.592 154.11 274.357 213.284 302.926 216.642C331.495 220 335.3 161.863 330.497 147.568C325.693 133.272 311.019 101.255 292.805 127.683Z" fill="#4F5B67"/>
<path fill-rule="evenodd" clip-rule="evenodd" d="M87.2484 197.804C112.899 220.432 141.063 229.085 145.879 230.945C150.695 232.806 168.383 217.564 170.658 219.084C172.932 220.604 166.083 239.394 169.96 242.458C173.837 245.521 242.817 280.111 310.604 287.112C271.265 320.167 194.575 324.034 175.195 319.905C155.815 315.775 105.581 280.314 99.1142 268.971C92.6477 257.629 80.1715 215.037 81.3155 208.269C82.4595 201.502 61.5974 175.176 87.2484 197.804Z" fill="#4F5B67"/>
<path d="M169.171 222.505C154.942 249.814 155.148 289.732 161.235 301.415" stroke="#454F61" stroke-width="7" stroke-linecap="round"/>
<path d="M173.797 250.481C172.861 260.273 172.911 278.041 157.395 275.25" stroke="#454F61" stroke-width="7" stroke-linecap="round" stroke-dasharray="7 14"/>
<path fill-rule="evenodd" clip-rule="evenodd" d="M194.739 286.763C162.048 288.405 128.116 278.17 115.518 274.553C102.919 270.935 119.357 301.415 119.357 301.415C119.357 301.415 185.708 330.55 220.216 325.137C254.724 319.724 310.954 287.112 310.954 287.112C296.275 285.535 273.476 281.231 255.813 276.297C239.376 281.636 218.393 285.577 194.739 286.763Z" fill="#454F61"/>
</g>
<path fill-rule="evenodd" clip-rule="evenodd" d="M50.2562 95.5879L40.4844 173.384L137.505 183.501L147.625 99.0765L50.2562 95.5879Z" fill="#F5A648"/>
<path fill-rule="evenodd" clip-rule="evenodd" d="M56.5369 130.474L52 156.638L86.2013 161.173L90.7383 134.311L56.5369 130.474Z" fill="white"/>
<mask id="mask2_1109_1384" style="mask-type:alpha" maskUnits="userSpaceOnUse" x="40" y="95" width="108" height="89">
<path fill-rule="evenodd" clip-rule="evenodd" d="M50.2562 95.5879L40.4844 173.384L137.505 183.501L147.625 99.0765L50.2562 95.5879Z" fill="#F5A648"/>
</mask>
<g mask="url(#mask2_1109_1384)">
<path opacity="0.5" fill-rule="evenodd" clip-rule="evenodd" d="M88.6461 95.5879L86.2031 113.38L88.2971 115.822L91.787 113.729L94.23 116.52L97.7199 114.426L101.559 117.217L105.747 114.426L107.841 95.5879H88.6461Z" fill="white"/>
</g>
<path fill-rule="evenodd" clip-rule="evenodd" d="M90.3886 14.3032L58.2812 68.0277L123.892 96.6342L161.583 54.0733L90.3886 14.3032Z" fill="#F5A648"/>
<mask id="mask3_1109_1384" style="mask-type:alpha" maskUnits="userSpaceOnUse" x="58" y="14" width="104" height="83">
<path fill-rule="evenodd" clip-rule="evenodd" d="M90.3886 14.3032L58.2812 68.0277L123.892 96.6342L161.583 54.0733L90.3886 14.3032Z" fill="#F5A648"/>
</mask>
<g mask="url(#mask3_1109_1384)">
<path opacity="0.5" fill-rule="evenodd" clip-rule="evenodd" d="M122.3 29.4658L112.418 44.4637L113.253 47.5685L117.305 47.1848L118.305 50.7561L122.357 50.3723L124.616 54.5454L129.598 53.8334L139.617 37.7404L122.3 29.4658Z" fill="white"/>
</g>
<path fill-rule="evenodd" clip-rule="evenodd" d="M114.753 59.2803L105.59 75.5183L121.993 85.4863L131.338 68.7906L114.753 59.2803Z" fill="white"/>
<path fill-rule="evenodd" clip-rule="evenodd" d="M315.84 202.688C195.393 209.887 99.9143 202.788 71.5059 190.369C55.5412 183.389 54.9018 174.171 73.9879 176.174C86.5339 177.491 103.982 176.683 106.095 173.732C110.068 168.185 92.8363 163.656 98.7664 157.685C104.35 152.06 116.321 160.21 130.229 161.206C196.275 165.935 278.882 144.36 291.76 139.544C300.51 151.261 326.792 202.033 315.84 202.688Z" fill="#DF9986"/>
<mask id="mask4_1109_1384" style="mask-type:alpha" maskUnits="userSpaceOnUse" x="59" y="139" width="260" height="67">
<path fill-rule="evenodd" clip-rule="evenodd" d="M315.84 202.688C195.393 209.887 99.9143 202.788 71.5059 190.369C55.5412 183.389 54.9018 174.171 73.9879 176.174C86.5339 177.491 103.982 176.683 106.095 173.732C110.068 168.185 92.8363 163.656 98.7664 157.685C104.35 152.06 116.321 160.21 130.229 161.206C196.275 165.935 278.882 144.36 291.76 139.544C300.51 151.261 326.792 202.033 315.84 202.688Z" fill="#DF9986"/>
</mask>
<g mask="url(#mask4_1109_1384)">
<path fill-rule="evenodd" clip-rule="evenodd" d="M206.954 152.451C217.895 171.21 219.508 195.589 208.001 212.455C191.671 236.391 239.411 202.338 239.411 202.338L225.8 151.405C225.8 151.405 199.419 139.531 206.954 152.451Z" fill="#CE6F6A"/>
<path d="M74.3854 201.772C104.722 201.772 129.314 180.601 129.314 154.485C129.314 128.369 104.722 107.198 74.3854 107.198C44.0493 107.198 19.457 128.369 19.457 154.485C19.457 180.601 44.0493 201.772 74.3854 201.772Z" fill="url(#paint0_radial_1109_1384)"/>
<path fill-rule="evenodd" clip-rule="evenodd" d="M290.362 136.753C290.362 136.753 197.58 140.892 207.651 153.847C226.065 172.142 220.18 209.313 218.819 213.851C318.485 206.769 320.376 204.781 320.376 204.781L320.027 169.197L290.362 136.753Z" fill="#4F5B67"/>
</g>
<path fill-rule="evenodd" clip-rule="evenodd" d="M332.938 37.6769C330.273 16.5953 289.459 -9.30233 241.851 10.4658C232.11 14.5105 221.291 52.957 216.724 63.4926C213.094 71.8607 194.748 70.0976 186.012 78.4936C178.761 85.4621 158.835 122.278 213.583 141.288C228.269 146.388 241.118 137.978 251.972 138.498C261.416 138.951 269.319 148.778 276.01 147.058C290.295 143.386 298.462 136.136 301.18 131.171C306.748 121 335.604 58.7586 332.938 37.6769Z" fill="#DF9986"/>
<mask id="mask5_1109_1384" style="mask-type:alpha" maskUnits="userSpaceOnUse" x="176" y="3" width="158" height="145">
<path fill-rule="evenodd" clip-rule="evenodd" d="M332.938 37.6769C330.273 16.5953 289.459 -9.30233 241.851 10.4658C232.11 14.5105 221.291 52.957 216.724 63.4926C213.094 71.8607 194.748 70.0976 186.012 78.4936C178.761 85.4621 158.835 122.278 213.583 141.288C228.269 146.388 241.118 137.978 251.972 138.498C261.416 138.951 269.319 148.778 276.01 147.058C290.295 143.386 298.462 136.136 301.18 131.171C306.748 121 335.604 58.7586 332.938 37.6769Z" fill="#DF9986"/>
</mask>
<g mask="url(#mask5_1109_1384)">
<path fill-rule="evenodd" clip-rule="evenodd" d="M308.51 117.217C304.568 128.523 301.764 145.714 280.242 147.568C258.72 149.422 245.691 143.033 245.691 143.033L263.839 130.125C263.839 130.125 274.18 134.808 285.826 133.963C295.967 133.227 301.098 125.005 308.51 117.217Z" fill="#CE6F6A"/>
<path d="M207.997 88.9593C214.936 88.9593 220.561 83.4926 220.561 76.7492C220.561 70.0057 214.936 64.5391 207.997 64.5391C201.059 64.5391 195.434 70.0057 195.434 76.7492C195.434 83.4926 201.059 88.9593 207.997 88.9593Z" fill="#EB7F6D"/>
<path d="M263.837 108.845C270.776 108.845 276.401 103.378 276.401 96.6344C276.401 89.891 270.776 84.4243 263.837 84.4243C256.898 84.4243 251.273 89.891 251.273 96.6344C251.273 103.378 256.898 108.845 263.837 108.845Z" fill="#EB7F6D"/>
<path fill-rule="evenodd" clip-rule="evenodd" d="M302.229 54.4221C306.694 73.8013 295.088 101.992 294.551 107.1C305.451 93.874 309.458 79.1319 322.819 84.0752C329.672 86.6107 331.195 71.1674 331.195 71.1674C331.195 71.1674 297.764 35.0429 302.229 54.4221Z" fill="black"/>
<path fill-rule="evenodd" clip-rule="evenodd" d="M225.797 33.4905C283.447 36.4589 325.233 72.7721 327.703 75.3537C330.172 77.9353 337.515 41.0381 337.126 37.6768C336.737 34.3155 320.714 5.26141 289.314 1.04648C257.913 -3.16845 229.874 4.94221 225.797 33.4905Z" fill="#4097FD"/>
<path fill-rule="evenodd" clip-rule="evenodd" d="M308.859 7.67504C317.873 22.3028 302.926 57.2132 302.926 57.2132C302.926 57.2132 324.114 70.3973 328.751 77.796C330.297 80.2614 338.872 37.677 338.872 37.677L322.12 9.41934C322.12 9.41934 299.845 -6.95267 308.859 7.67504Z" fill="#3870EE"/>
<path d="M228.588 77.7961C230.515 77.7961 232.078 76.2342 232.078 74.3075C232.078 72.3807 230.515 70.8188 228.588 70.8188C226.66 70.8188 225.098 72.3807 225.098 74.3075C225.098 76.2342 226.66 77.7961 228.588 77.7961Z" fill="black"/>
<path d="M251.275 85.4709C253.203 85.4709 254.765 83.909 254.765 81.9823C254.765 80.0556 253.203 78.4937 251.275 78.4937C249.348 78.4937 247.785 80.0556 247.785 81.9823C247.785 83.909 249.348 85.4709 251.275 85.4709Z" fill="black"/>
</g>
<path fill-rule="evenodd" clip-rule="evenodd" d="M315.837 83.7267C311.316 89.1585 302.227 114.426 302.227 114.426C302.227 114.426 325.71 122.047 333.287 103.263C339.145 88.7395 319.803 83.5561 315.837 83.7267Z" fill="#DF9986"/>
<path fill-rule="evenodd" clip-rule="evenodd" d="M325.609 93.4945C319.139 91.499 311.432 97.7464 311.998 103.611C312.564 109.476 320.439 110.914 323.166 107.1C325.893 103.286 322.416 97.4087 317.233 98.7274C319.474 94.8861 321.075 94.6702 325.609 93.4945Z" fill="#CE6F6A"/>
<path fill-rule="evenodd" clip-rule="evenodd" d="M250.576 57.2134C250.855 42.8285 233.196 34.0582 220.562 57.5623C235.642 50.9102 239.827 63.9649 239.408 71.5167C252.817 59.0275 271.757 59.5159 275.005 75.0053C283.238 52.9552 273.198 38.0721 250.576 57.2134Z" fill="black"/>
<path fill-rule="evenodd" clip-rule="evenodd" d="M234.173 33.8395C220.654 30.6384 195.086 11.8613 195.086 11.8613C186.893 18.0927 172.75 20.5828 172.75 20.5828C195.346 32.9517 216.466 33.2388 234.173 33.8395Z" fill="#4097FD"/>
<path fill-rule="evenodd" clip-rule="evenodd" d="M281.294 137.374C281.83 140.034 281.485 142.796 280.312 145.243C279.139 147.69 277.202 149.689 274.792 150.939C272.383 152.188 269.632 152.62 266.955 152.169C264.279 151.718 261.821 150.41 259.954 148.44C258.679 151.078 256.593 153.24 254.002 154.61C251.41 155.979 248.449 156.484 245.55 156.052C242.65 155.619 239.965 154.272 237.887 152.206C235.808 150.139 234.445 147.463 233.996 144.568C233.238 147.445 231.566 149.998 229.232 151.844C226.898 153.69 224.027 154.728 221.052 154.803C218.077 154.879 215.158 153.986 212.733 152.261C210.309 150.535 208.51 148.069 207.608 145.234C205.534 147.768 202.624 149.479 199.401 150.058C196.177 150.636 192.853 150.045 190.028 148.391C187.202 146.737 185.06 144.128 183.988 141.035C182.915 137.942 182.984 134.568 184.18 131.52C181.643 132.328 178.914 132.306 176.39 131.455C173.866 130.605 171.68 128.972 170.149 126.794C168.618 124.616 167.823 122.006 167.879 119.345C167.934 116.683 168.839 114.109 170.459 111.997C168.702 110.079 167.587 107.661 167.269 105.08C166.952 102.498 167.447 99.882 168.687 97.5955C169.927 95.309 171.85 93.4659 174.187 92.3231C176.524 91.1802 179.159 90.7945 181.726 91.2195C182.674 89.7432 183.921 88.4827 185.388 87.52C186.855 86.5574 188.508 85.9142 190.24 85.6322C191.972 85.3502 193.744 85.4358 195.44 85.8834C197.137 86.331 198.72 87.1306 200.087 88.2302C201.311 86.7603 202.855 85.5905 204.602 84.811C206.349 84.0315 208.251 83.6629 210.163 83.7337C212.074 83.8044 213.944 84.3126 215.628 85.2192C217.313 86.1257 218.767 87.4064 219.878 88.9628C221.272 87.6218 222.958 86.6225 224.804 86.0433C226.649 85.464 228.604 85.3208 230.515 85.6248C232.425 85.9288 234.239 86.6717 235.814 87.7951C237.388 88.9185 238.681 90.3918 239.589 92.099C241.657 91.1934 243.932 90.8645 246.172 91.1473C248.412 91.43 250.534 92.3139 252.312 93.705C254.09 95.0961 255.458 96.9425 256.271 99.0482C257.084 101.154 257.311 103.44 256.928 105.665C258.735 104.478 260.818 103.78 262.975 103.638C265.132 103.497 267.289 103.916 269.235 104.856C271.181 105.796 272.851 107.224 274.08 109.001C275.31 110.778 276.058 112.844 276.251 114.996C278.646 115.45 280.857 116.595 282.61 118.289C284.363 119.983 285.583 122.153 286.119 124.531C286.655 126.909 286.484 129.391 285.627 131.673C284.769 133.955 283.264 135.937 281.294 137.374Z" fill="black"/>
<path fill-rule="evenodd" clip-rule="evenodd" d="M241.853 79.5406C234.001 74.6007 208.52 88.314 220.914 97.3324C237.357 109.298 250.632 85.0634 241.853 79.5406Z" fill="#E33B30"/>
<path fill-rule="evenodd" clip-rule="evenodd" d="M275.005 21.9785L259.301 25.4671L264.885 28.6069L260.697 32.7932L277.797 30.0023L273.261 24.7694L275.005 21.9785Z" fill="white"/>
<path fill-rule="evenodd" clip-rule="evenodd" d="M213.236 305.601C230.42 335.578 240.048 383.579 328.753 321.3C339.034 334.173 351.786 331.068 351.786 331.068L336.082 276.646C336.082 276.646 291.36 301.557 285.826 301.764C280.293 301.971 279.894 291.996 279.894 291.996C279.894 291.996 196.051 275.625 213.236 305.601Z" fill="#454F61"/>
<mask id="mask6_1109_1384" style="mask-type:alpha" maskUnits="userSpaceOnUse" x="210" y="276" width="142" height="76">
<path fill-rule="evenodd" clip-rule="evenodd" d="M213.236 305.601C230.42 335.578 240.048 383.579 328.753 321.3C339.034 334.173 351.786 331.068 351.786 331.068L336.082 276.646C336.082 276.646 291.36 301.557 285.826 301.764C280.293 301.971 279.894 291.996 279.894 291.996C279.894 291.996 196.051 275.625 213.236 305.601Z" fill="#454F61"/>
</mask>
<g mask="url(#mask6_1109_1384)">
<path fill-rule="evenodd" clip-rule="evenodd" d="M320.724 281.53C315.838 285.616 327.683 340.786 348.644 338.394C369.604 336.002 362.603 317.114 362.603 317.114L341.315 274.553C341.315 274.553 325.61 277.444 320.724 281.53Z" fill="black"/>
<path fill-rule="evenodd" clip-rule="evenodd" d="M329.102 273.157L349.692 342.231L361.209 332.812L339.222 266.529L329.102 273.157Z" fill="#90613E"/>
</g>
<path fill-rule="evenodd" clip-rule="evenodd" d="M290.711 203.037C301.158 202.595 312.477 196.87 314.093 192.571C315.71 188.272 317.571 207.669 306.765 210.363C295.959 213.057 280.264 203.478 290.711 203.037Z" fill="#454F61"/>
<path fill-rule="evenodd" clip-rule="evenodd" d="M230.683 219.782C239.182 222.692 266.811 230.917 271.166 231.992C275.522 233.067 269.767 244.873 268.025 245.249C266.283 245.624 254.296 236.796 251.274 238.969C248.251 241.142 244.411 243.019 243.247 237.574C242.083 232.128 227.46 231.479 225.797 230.248C224.134 229.016 226.117 218.219 230.683 219.782Z" fill="#3870EE"/>
<path fill-rule="evenodd" clip-rule="evenodd" d="M212.907 113.207C213.501 112.65 214.434 112.679 214.991 113.273C218.67 117.191 224.967 119.589 231.81 119.611C238.622 119.632 245.777 117.293 251.128 112.004C251.707 111.431 252.64 111.437 253.213 112.016C253.785 112.594 253.78 113.528 253.201 114.1C247.211 120.02 239.266 122.582 231.801 122.558C224.367 122.535 217.21 119.944 212.841 115.29C212.284 114.696 212.313 113.764 212.907 113.207Z" fill="white"/>
<defs>
<radialGradient id="paint0_radial_1109_1384" cx="0" cy="0" r="1" gradientUnits="userSpaceOnUse" gradientTransform="translate(74.3854 154.485) scale(47.305 47.287)">
<stop stop-color="#EB7F6D"/>
<stop offset="0.396" stop-color="#EB7F6D"/>
<stop offset="1" stop-color="#DF9986"/>
</radialGradient>
</defs>
</svg>
