<svg width="348" height="402" viewBox="0 0 348 402" fill="none" xmlns="http://www.w3.org/2000/svg">
<path d="M34.7366 245.184C-59.2507 196.739 56.8376 97.5534 153.74 113.108L133.096 245.184H34.7366Z" fill="#464F60"/>
<mask id="mask0_1102_709" style="mask-type:alpha" maskUnits="userSpaceOnUse" x="0" y="111" width="154" height="135">
<path d="M34.7366 245.184C-59.2507 196.74 56.8376 97.5539 153.74 113.108L133.096 245.184H34.7366Z" fill="#505A66"/>
</mask>
<g mask="url(#mask0_1102_709)">
<path d="M-26.4652 169.199C72.1375 152.626 86.7094 195.462 102.738 259.717C77.4805 264.562 25.2648 274.149 18.4646 273.741C9.96437 273.231 -125.068 185.773 -26.4652 169.199Z" fill="#D89B88"/>
<path d="M42.2658 167.67C48.5084 168.927 68.4954 178.179 68.4952 192.148C56.109 200.818 50.766 180.164 38.1371 174.3C24.6927 168.057 9.72195 165.63 9.72195 165.63C9.72195 165.63 22.5938 163.709 42.2658 167.67Z" fill="#CE6F6A"/>
</g>
<path d="M331.275 246.462C331.275 205.211 315.666 165.65 287.883 136.481C260.1 107.312 222.419 90.9248 183.128 90.9248C143.836 90.9248 106.155 107.312 78.3717 136.481C50.5888 165.65 34.9805 205.211 34.9805 246.462L183.127 246.462H331.275Z" fill="#4E96F8"/>
<mask id="mask1_1102_709" style="mask-type:alpha" maskUnits="userSpaceOnUse" x="34" y="90" width="298" height="157">
<path d="M331.274 246.463C331.274 205.212 315.666 165.65 287.883 136.481C260.1 107.312 222.419 90.9253 183.127 90.9253C143.836 90.9253 106.155 107.312 78.3717 136.481C50.5888 165.65 34.9805 205.212 34.9805 246.463L183.127 246.463H331.274Z" fill="#442C2C"/>
</mask>
<g mask="url(#mask1_1102_709)">
<path fill-rule="evenodd" clip-rule="evenodd" d="M70.8065 189.319C79.6244 189.884 107.969 190.494 112.379 190.369C116.789 190.244 114.42 203.579 112.867 204.431C111.314 205.283 97.6408 199.781 95.3437 202.774C93.0467 205.768 89.8965 208.69 87.3691 203.587C84.8417 198.485 70.8095 201.85 68.9106 201.08C67.0118 200.311 66.0694 189.015 70.8065 189.319Z" fill="#3870EE"/>
<path fill-rule="evenodd" clip-rule="evenodd" d="M192.236 194.417C201.054 194.983 229.398 195.592 233.808 195.468C238.219 195.343 235.85 208.677 234.297 209.529C232.743 210.381 219.07 204.88 216.773 207.873C214.476 210.866 211.326 213.789 208.799 208.686C206.271 203.583 192.239 206.949 190.34 206.179C188.441 205.409 187.499 194.114 192.236 194.417Z" fill="#3870EE"/>
<path d="M118.286 249.009C227.09 236.006 253.724 158.067 239.718 125.854L266.676 145.488L317.678 170.731L306.991 287.001L85.257 272.468C76.1091 270.258 27.7927 259.825 118.286 249.009Z" fill="#3870EE"/>
<path d="M297.518 182.718C254.045 201.332 223.445 140.647 262.06 94.7505C280.356 94.7505 303.978 99.8501 305.533 99.8501C307.476 99.8501 341.779 163.768 297.518 182.718Z" fill="#505B66"/>
<path d="M252.59 155.177C254.857 155.177 262.839 158.492 276.633 171.751C276.633 176.001 257.671 191.219 258.904 185.52C261.333 174.301 258.338 160.702 252.59 155.177Z" fill="#464F60"/>
</g>
<path fill-rule="evenodd" clip-rule="evenodd" d="M211.97 202.148L241.786 280.713L335.459 237.855L302.661 152.857L211.97 202.148Z" fill="#F5A648"/>
<path fill-rule="evenodd" clip-rule="evenodd" d="M238.323 239.785L244.86 259.721L269.509 249.277L262.716 228.858L238.323 239.785Z" fill="white"/>
<mask id="mask2_1102_709" style="mask-type:alpha" maskUnits="userSpaceOnUse" x="211" y="152" width="125" height="129">
<path fill-rule="evenodd" clip-rule="evenodd" d="M211.98 202.264L241.686 280.728L335.448 237.739L302.769 152.851L211.98 202.264Z" fill="#F5A648"/>
</mask>
<g mask="url(#mask2_1102_709)">
<path d="M273.567 275.165C278.6 252.602 294.454 202.09 264.578 166.342L321.312 169.379L335.814 255.38C313.825 266.036 271.347 285.116 273.567 275.165Z" fill="#E08848"/>
<path opacity="0.5" fill-rule="evenodd" clip-rule="evenodd" d="M246.718 181.135L253.329 199.217L256.462 200.382L258.617 196.519L262.242 197.824L264.397 193.961L269.301 194.51L271.748 189.611L264.296 170.733L246.718 181.135Z" fill="white"/>
</g>
<path d="M302.13 273.742C359.688 265.008 381.304 116.42 256.471 107.496C254.286 113.615 250.011 127.435 250.4 133.758C250.886 141.663 257.2 154.412 271.043 166.396C289.987 182.795 305.773 207.702 305.773 230.141C291.444 234.22 281.001 248.754 282.215 252.834C283.429 256.913 301.401 245.694 301.401 249.009C301.401 254.874 269.343 278.717 302.13 273.742Z" fill="#D89B88"/>
<mask id="mask3_1102_709" style="mask-type:alpha" maskUnits="userSpaceOnUse" x="250" y="107" width="98" height="168">
<path d="M302.13 273.742C359.688 265.008 381.304 116.42 256.471 107.496C254.286 113.615 250.011 127.435 250.4 133.758C250.886 141.663 257.2 154.412 271.043 166.396C289.987 182.795 305.773 207.702 305.773 230.141C291.444 234.22 281.001 248.754 282.215 252.834C283.429 256.913 301.401 245.694 301.401 249.009C301.401 254.874 269.343 278.717 302.13 273.742Z" fill="#C4C4C4"/>
</mask>
<g mask="url(#mask3_1102_709)">
<path d="M287.6 198.488C288.329 191.859 301.402 149.819 348.275 159.763C343.417 161.378 328.603 162.058 314.073 173.5C302.312 182.761 296.424 205.033 295.615 216.082C292.7 212.427 287.017 203.792 287.6 198.488Z" fill="#CE6F6A"/>
<path d="M272.015 190.618C238.743 146.252 231.943 100.61 283.43 100.865L338.317 116.164C352.403 133.333 373.192 166.395 343.66 161.295C306.745 154.921 291.687 188.323 289.259 204.897C288.466 210.306 289.898 215.39 291.031 218.241C292.158 221.08 292.988 221.706 291.031 218.241C288.93 214.522 283.618 206.089 272.015 190.618Z" fill="#505B66"/>
</g>
<path d="M127.723 17.8515C132.407 26.6767 146.95 47.584 176.864 51.8953C119.997 57.033 92.7812 27.2153 92.7812 27.2153C99.2746 26.1321 115.354 22.7429 127.723 17.8515Z" fill="#4E96F8"/>
<path d="M152.038 51.1478C171.224 4.74155 207.654 -2.39787 242.869 9.0762C277.631 20.4025 280.683 50.3629 269.776 95.769C269.633 96.3614 280.4 94.0203 285.372 100.359C292.172 109.028 288.286 122.542 279.786 128.151C274.2 131.838 262.51 132.996 257.443 130.446C248.802 147.258 236.592 155.83 208.627 165.123C166.523 179.115 108.324 156.324 108.324 115.147C108.324 66.1914 140.126 79.9603 152.038 51.1478Z" fill="#D89B88"/>
<mask id="mask4_1102_709" style="mask-type:alpha" maskUnits="userSpaceOnUse" x="108" y="0" width="173" height="170">
<path d="M242.142 7.80206C291.929 24.6293 284.643 39.4146 269.341 97.5461C267.083 106.126 264.763 113.821 261.856 120.757C253.395 140.945 239.965 154.701 208.627 165.115C166.523 179.107 108.324 156.316 108.324 115.139C108.324 66.1834 140.126 79.9523 152.038 51.1398C171.224 4.7336 186.205 -11.1038 242.142 7.80206Z" fill="#D89B88"/>
</mask>
<g mask="url(#mask4_1102_709)">
<path d="M252.344 120.247C254.287 112.852 258.901 90.414 255.744 73.8403C260.034 75.4552 271.433 87.6092 271.044 91.6889C270.656 95.7686 266.916 102.653 261.815 109.537C256.715 116.422 252.344 120.247 252.344 120.247Z" fill="black"/>
<ellipse cx="150.826" cy="86.5874" rx="14.8147" ry="15.5537" fill="#E1846F"/>
<ellipse cx="213.484" cy="107.497" rx="18.2148" ry="19.1234" fill="#E1846F"/>
<path d="M275.413 102.388C256.713 77.4001 204.011 48.3325 146.695 52.1572C146.695 17.4808 175.929 -24.7514 235.584 -13.3635C307.714 0.405994 300.671 73.8304 275.413 102.388Z" fill="#4E96F8"/>
<path fill-rule="evenodd" clip-rule="evenodd" d="M247.485 5.5034C273.471 26.4119 256.714 84.2921 256.714 84.2921C256.714 84.2921 280.271 101.886 281.971 115.655C284.122 119.258 306.501 55.4397 306.501 55.4397L283.186 14.133C283.186 14.133 234.939 -15.8792 247.485 5.5034Z" fill="#3870EE"/>
<path fill-rule="evenodd" clip-rule="evenodd" d="M223 23.6079L198.668 29.3655L207.319 34.5473L200.831 41.4565L227.326 36.8504L220.297 28.214L223 23.6079Z" fill="white"/>
</g>
<path d="M197.214 66.4426C204.5 34.5702 178.757 33.8059 163.699 62.1085C178.028 52.9294 187.986 59.0489 189.443 78.1723C204.258 69.758 222.715 67.4632 227.572 92.7074C244.087 70.2679 222.715 39.9254 197.214 66.4426Z" fill="black"/>
<path fill-rule="evenodd" clip-rule="evenodd" d="M235.687 115.914C233.755 105.169 224.767 97.0418 213.971 97.0418C206.087 97.0418 199.167 101.376 195.255 107.899C191.539 98.8156 182.942 92.4536 172.929 92.4536C166.349 92.4536 160.381 95.2004 156.007 99.6612C153.862 87.1538 143.442 77.6646 130.911 77.6646C120.712 77.6646 111.911 83.9512 107.832 93.035C107.193 92.9861 106.548 92.9612 105.897 92.9612C91.4112 92.9612 79.668 105.29 79.668 120.499C79.668 134.715 89.9288 146.416 103.099 147.882C103.022 148.774 102.983 149.678 102.983 150.591C102.983 166.926 115.596 180.169 131.155 180.169C140.28 180.169 148.391 175.614 153.54 168.552C156.079 182.149 167.491 192.406 181.185 192.406C189.291 192.406 196.598 188.812 201.737 183.058C206.464 187.895 212.922 190.875 220.044 190.875C234.53 190.875 246.273 178.546 246.273 163.337C246.273 162.014 246.184 160.713 246.013 159.439C252.828 155.488 257.444 147.867 257.444 139.114C257.444 126.42 247.735 116.107 235.687 115.914Z" fill="black"/>
<path d="M188.966 86.2443C173.582 77.0212 138.777 102.779 157.37 115.935C180.175 132.071 204.351 95.4674 188.966 86.2443Z" fill="#D64935"/>
<ellipse cx="172.683" cy="78.4299" rx="4.1287" ry="4.33465" fill="black"/>
<ellipse cx="201.828" cy="88.6281" rx="4.1287" ry="4.33464" fill="black"/>
<ellipse cx="151.797" cy="195.21" rx="4.12868" ry="4.33465" fill="#3870EE"/>
<ellipse cx="149.367" cy="225.807" rx="4.12868" ry="4.33465" fill="#3870EE"/>
<path fill-rule="evenodd" clip-rule="evenodd" d="M281.209 105.095C274.399 101.6 264.782 107.384 264.384 114.254C263.987 121.124 272.448 124.235 276.131 120.339C279.814 116.443 276.993 109.021 271.029 109.586C274.179 105.569 275.987 105.615 281.209 105.095Z" fill="#CE6F6A"/>
<path fill-rule="evenodd" clip-rule="evenodd" d="M151.761 122.314C152.543 121.543 153.773 121.584 154.507 122.405C159.355 127.829 167.653 131.148 176.67 131.177C185.647 131.207 195.075 127.969 202.126 120.649C202.889 119.857 204.12 119.864 204.874 120.665C205.628 121.467 205.621 122.758 204.858 123.55C196.966 131.744 186.495 135.289 176.658 135.257C166.862 135.225 157.431 131.638 151.674 125.197C150.939 124.376 150.978 123.085 151.761 122.314Z" fill="white"/>
</svg>
