<svg width="45" height="42" viewBox="0 0 45 42" fill="none" xmlns="http://www.w3.org/2000/svg">
<path fill-rule="evenodd" clip-rule="evenodd" d="M44.6129 9.298C43.8955 3.57719 32.9114 -3.45051 20.0991 1.91387C17.4775 3.01145 14.5658 13.4445 13.3367 16.3035C12.3599 18.5743 7.42258 18.0958 5.07151 20.3742C3.12017 22.2652 -2.24242 32.2558 12.4914 37.4145C16.4437 38.7983 19.9019 36.5161 22.8229 36.6571C25.3646 36.7802 27.4913 39.4468 29.292 38.9801C33.1366 37.9836 35.3345 36.0163 36.0659 34.6691C37.5646 31.9089 45.3302 15.0188 44.6129 9.298Z" fill="#DF9986"/>
<mask id="mask0_1178_30" style="mask-type:alpha" maskUnits="userSpaceOnUse" x="2" y="0" width="43" height="40">
<path fill-rule="evenodd" clip-rule="evenodd" d="M44.609 9.298C43.8916 3.57719 32.9075 -3.45051 20.0952 1.91387C17.4736 3.01145 14.5619 13.4445 13.3328 16.3035C12.356 18.5743 7.41867 18.0958 5.0676 20.3742C3.11627 22.2652 -2.24633 32.2558 12.4875 37.4145C16.4398 38.7983 19.898 36.5161 22.819 36.6571C25.3607 36.7802 27.4874 39.4468 29.2881 38.9801C33.1327 37.9836 35.3306 36.0163 36.062 34.6691C37.5606 31.9089 45.3264 15.0188 44.609 9.298Z" fill="#DF9986"/>
</mask>
<g mask="url(#mask0_1178_30)">
<path fill-rule="evenodd" clip-rule="evenodd" d="M38.031 30.8823C36.9702 33.9503 36.2154 38.6153 30.4233 39.1185C24.6312 39.6216 21.125 37.8878 21.125 37.8878L26.009 34.3851C26.009 34.3851 28.7919 35.6557 31.9261 35.4264C34.6554 35.2267 36.0361 32.9955 38.031 30.8823Z" fill="#CE6F6A"/>
<path d="M10.9828 23.2142C12.8502 23.2142 14.364 21.7307 14.364 19.9008C14.364 18.0709 12.8502 16.5874 10.9828 16.5874C9.11538 16.5874 7.60156 18.0709 7.60156 19.9008C7.60156 21.7307 9.11538 23.2142 10.9828 23.2142Z" fill="#EB7F6D"/>
<path d="M26.0101 28.6107C27.8775 28.6107 29.3913 27.1272 29.3913 25.2973C29.3913 23.4673 27.8775 21.9839 26.0101 21.9839C24.1427 21.9839 22.6289 23.4673 22.6289 25.2973C22.6289 27.1272 24.1427 28.6107 26.0101 28.6107Z" fill="#EB7F6D"/>
<path fill-rule="evenodd" clip-rule="evenodd" d="M36.3436 13.8422C37.5453 19.1011 34.4219 26.7511 34.2773 28.1372C37.2107 24.5481 38.2893 20.5476 41.8851 21.889C43.7292 22.5771 44.1392 18.3863 44.1392 18.3863C44.1392 18.3863 35.142 8.58341 36.3436 13.8422Z" fill="black"/>
<path fill-rule="evenodd" clip-rule="evenodd" d="M15.7773 8.16205C31.2925 8.96758 42.5381 18.8217 43.2027 19.5222C43.8673 20.2228 45.8433 10.2102 45.7386 9.29807C45.6339 8.38594 41.3218 0.501673 32.8712 -0.642109C24.4207 -1.78589 16.8745 0.415052 15.7773 8.16205Z" fill="#4097FD"/>
<path fill-rule="evenodd" clip-rule="evenodd" d="M38.1279 1.15664C40.5539 5.12609 36.5312 14.5995 36.5312 14.5995C36.5312 14.5995 42.2336 18.1773 43.4815 20.185C43.8974 20.854 46.2053 9.29812 46.2053 9.29812L41.697 1.62999C41.697 1.62999 35.702 -2.8128 38.1279 1.15664Z" fill="#3870EE"/>
</g>
<path fill-rule="evenodd" clip-rule="evenodd" d="M40.0106 21.7941C38.7939 23.2681 36.3477 30.1249 36.3477 30.1249C36.3477 30.1249 42.6676 32.1928 44.7068 27.0955C46.2833 23.1544 41.0779 21.7478 40.0106 21.7941Z" fill="#DF9986"/>
<path fill-rule="evenodd" clip-rule="evenodd" d="M42.6396 24.4447C40.8984 23.9032 38.8243 25.5985 38.9767 27.1901C39.129 28.7817 41.2482 29.1717 41.9822 28.1368C42.7162 27.1019 41.7804 25.5069 40.3855 25.8647C40.9887 24.8224 41.4195 24.7638 42.6396 24.4447Z" fill="#CE6F6A"/>
<path fill-rule="evenodd" clip-rule="evenodd" d="M22.4445 14.5994C22.5197 10.6958 17.7672 8.31588 14.3672 14.6941C18.4254 12.8889 19.5517 16.4315 19.439 18.4808C23.0478 15.0917 28.1448 15.2242 29.0191 19.4275C31.2346 13.4439 28.5327 9.40513 22.4445 14.5994Z" fill="black"/>
<path fill-rule="evenodd" clip-rule="evenodd" d="M18.0304 8.25658C14.3921 7.38791 7.51104 2.29248 7.51104 2.29248C5.30611 3.98345 1.5 4.65919 1.5 4.65919C7.58101 8.01565 13.2649 8.09356 18.0304 8.25658Z" fill="#4097FD"/>
<path fill-rule="evenodd" clip-rule="evenodd" d="M30.7121 36.3525C30.8562 37.0743 30.7634 37.8238 30.4477 38.4878C30.132 39.1518 29.6106 39.6943 28.9621 40.0333C28.3137 40.3724 27.5734 40.4896 26.853 40.3673C26.1327 40.2449 25.4714 39.8897 24.9689 39.3553C24.6257 40.0712 24.0644 40.6579 23.367 41.0295C22.6695 41.4011 21.8725 41.5382 21.0923 41.4209C20.312 41.3035 19.5894 40.9378 19.03 40.3771C18.4706 39.8165 18.1037 39.0902 17.9829 38.3045C17.7789 39.0852 17.329 39.7781 16.7008 40.2789C16.0726 40.7798 15.3001 41.0617 14.4994 41.0821C13.6987 41.1025 12.913 40.8603 12.2606 40.3921C11.6081 39.9238 11.124 39.2547 10.8812 38.4854C10.3232 39.173 9.53995 39.6372 8.6725 39.7942C7.80505 39.9513 6.91047 39.7909 6.14995 39.342C5.38943 38.8931 4.81297 38.1852 4.52444 37.3458C4.23592 36.5064 4.2543 35.5908 4.57627 34.7639C3.89339 34.9831 3.1589 34.977 2.47973 34.7463C1.80056 34.5156 1.21216 34.0725 0.800172 33.4814C0.388187 32.8903 0.174126 32.1821 0.189151 31.4599C0.204176 30.7376 0.447501 30.0391 0.883707 29.4659C0.410778 28.9455 0.110671 28.2893 0.0251827 27.5888C-0.0603057 26.8883 0.0730812 26.1784 0.406769 25.5579C0.740456 24.9374 1.25783 24.4373 1.88682 24.1271C2.51581 23.817 3.2251 23.7123 3.9159 23.8277C4.17087 23.427 4.50664 23.085 4.9014 22.8238C5.29615 22.5625 5.74103 22.388 6.20712 22.3115C6.6732 22.2349 7.15005 22.2582 7.60664 22.3796C8.06323 22.5011 8.48934 22.7181 8.85725 23.0165C9.18653 22.6176 9.60221 22.3002 10.0723 22.0886C10.5424 21.8771 11.0544 21.7771 11.5688 21.7963C12.0833 21.8155 12.5865 21.9534 13.0398 22.1994C13.4931 22.4454 13.8843 22.7929 14.1834 23.2153C14.5585 22.8514 15.0123 22.5802 15.509 22.423C16.0058 22.2658 16.5319 22.227 17.046 22.3095C17.5602 22.3919 18.0483 22.5935 18.4721 22.8984C18.8958 23.2032 19.2437 23.603 19.4882 24.0663C20.0447 23.8206 20.657 23.7313 21.2598 23.8081C21.8627 23.8848 22.4337 24.1246 22.9122 24.5021C23.3907 24.8796 23.7589 25.3807 23.9776 25.9521C24.1963 26.5235 24.2575 27.144 24.1545 27.7476C24.6407 27.4256 25.2014 27.2361 25.7818 27.1977C26.3623 27.1592 26.9428 27.2731 27.4666 27.5281C27.9904 27.7832 28.4397 28.1707 28.7706 28.653C29.1015 29.1352 29.3028 29.6957 29.3547 30.2797C29.9994 30.4031 30.5943 30.7137 31.0662 31.1734C31.538 31.6332 31.8662 32.2219 32.0105 32.8671C32.1547 33.5124 32.1086 34.1861 31.8779 34.8054C31.6473 35.4246 31.242 35.9624 30.7121 36.3525Z" fill="black"/>
<path fill-rule="evenodd" clip-rule="evenodd" d="M20.0937 20.6582C17.9805 19.3177 11.1229 23.039 14.4584 25.4863C18.8837 28.7334 22.4563 22.1569 20.0937 20.6582Z" fill="#E33B30"/>
<path fill-rule="evenodd" clip-rule="evenodd" d="M29.0156 5.0376L24.7891 5.98428L26.2918 6.8363L25.1648 7.97232L29.7669 7.21497L28.546 5.79494L29.0156 5.0376Z" fill="white"/>
<path fill-rule="evenodd" clip-rule="evenodd" d="M13.721 29.9628C13.8808 29.8116 14.1319 29.8197 14.2819 29.9807C15.272 31.0441 16.9666 31.6949 18.8083 31.7006C20.6416 31.7064 22.567 31.0716 24.0071 29.6364C24.1629 29.4811 24.4141 29.4825 24.5682 29.6396C24.7223 29.7966 24.7209 30.0499 24.565 30.2052C22.9531 31.8117 20.8147 32.5068 18.8058 32.5005C16.8052 32.4942 14.879 31.791 13.7032 30.5281C13.5532 30.3671 13.5612 30.1139 13.721 29.9628Z" fill="white"/>
<ellipse cx="16.2963" cy="19.1643" rx="0.843193" ry="0.849888" fill="black"/>
<ellipse cx="23.5658" cy="20.9744" rx="0.843193" ry="0.849889" fill="black"/>
</svg>
